# xmcd
#
# Track frame offsets:
#	150
#	22418
#	41758
#	64450
#	88115
#	110458
#	129563
#	148793
#	169358
#	180818
#	196785
#	221140
#
# Disc length: 3248 seconds
#
# Revision: 1
# Processed by: cddbd v1.5.2PL0 Copyright (c) Steve Scherf et al.
# Submitted via: audiograbber 1.81.03
#
DISCID=b80cae0c
DTITLE=Various Artist - Today's Blues - Vol 1
DYEAR=1986
DGENRE=Blues
TTITLE0=Albert Collins, Robert Cray, Johnny Copeland - T Bone Shuffle
TTITLE1=Lonnie Brooks - Don't Take Advantage Of Me
TTITLE2=Johnny Winter - Murdering Blues
TTITLE3=Koko Taylor - I Cried Like A Baby
TTITLE4=Lonnie Mack - Falling In Love With You
TTITLE5=Son Seals - Don't Pick Me For Your Fool
TTITLE6=Big Twist and The Mellow Fellows - I Brought The Blues On Myself
TTITLE7=Albert Collins, Robert Creay, Johnny Copeland - Bring Your Fine Self Ho
TTITLE7=me
TTITLE8=James Cotton - No More Doggin'
TTITLE9=Roy Buchanan, Son Seals - Short Fuse
TTITLE10=Johnny Winter - Don't Take Advantage Of Me
TTITLE11=James Cotton - Sunny Road
EXTD=
EXTT0=
EXTT1=
EXTT2=
EXTT3=
EXTT4=
EXTT5=
EXTT6=
EXTT7=
EXTT8=
EXTT9=
EXTT10=
EXTT11=
PLAYORDER=
